<?xml version="1.0" standalone="no"?>
<!DOCTYPE svg PUBLIC "-//W3C//DTD SVG 20010904//EN"
 "http://www.w3.org/TR/2001/REC-SVG-20010904/DTD/svg10.dtd">
<svg version="1.0" xmlns="http://www.w3.org/2000/svg"
 width="675.000000pt" height="675.000000pt" viewBox="0 0 675.000000 675.000000"
 preserveAspectRatio="xMidYMid meet">
<metadata>
Created by potrace 1.14, written by Peter Selinger 2001-2017
</metadata>
<g transform="translate(0.000000,675.000000) scale(0.100000,-0.100000)"
fill="#000000" stroke="none">
<path d="M2860 4379 c-41 -23 -163 -89 -270 -146 -357 -193 -674 -365 -730
-396 -30 -16 -98 -52 -150 -80 -52 -27 -126 -67 -163 -88 -38 -22 -70 -39 -72
-39 -2 0 0 12 4 28 27 96 -93 148 -213 91 -54 -25 -113 -82 -133 -129 -14 -34
-13 -93 2 -151 6 -23 2 -28 -32 -45 -94 -48 -453 -247 -450 -250 4 -4 131 -31
192 -41 87 -15 437 -8 535 11 52 9 104 19 115 21 11 2 27 6 35 9 8 3 29 7 45
9 17 3 41 8 55 11 16 4 39 0 63 -13 21 -11 48 -17 60 -15 12 3 32 7 45 10 46
9 129 45 145 62 10 9 25 27 35 39 9 12 27 24 38 27 21 7 22 6 8 -33 -26 -76 1
-94 151 -96 123 -2 131 -1 146 26 18 35 -7 45 -115 45 -63 -1 -101 3 -103 10
-8 24 117 129 205 171 99 48 107 50 92 24 -24 -46 27 -76 60 -34 19 24 40 24
40 0 0 -7 -24 -35 -53 -63 -63 -62 -82 -94 -73 -128 10 -39 41 -49 161 -51
113 -2 155 9 155 40 0 25 -32 33 -129 31 -68 -1 -95 2 -99 12 -2 7 25 44 61
81 52 54 65 73 62 92 -5 28 -40 59 -66 59 -35 0 -22 38 24 67 63 40 188 140
283 228 140 130 208 191 214 193 8 3 40 -92 40 -117 0 -5 14 -49 31 -96 35
-96 134 -251 217 -340 28 -30 52 -60 52 -65 0 -5 -11 -35 -25 -66 -31 -70 -32
-100 -4 -109 27 -9 52 15 74 70 9 25 20 45 23 45 8 0 43 -30 107 -88 22 -21
60 -53 85 -72 25 -19 47 -38 48 -42 2 -5 11 -8 20 -8 8 0 12 -3 8 -7 -4 -5
-50 -8 -101 -9 -134 -1 -169 -26 -193 -134 -6 -25 -16 -66 -21 -92 -18 -79
-14 -142 10 -164 19 -17 38 -19 171 -19 l150 0 29 35 c29 34 56 106 45 117 -3
4 -25 6 -48 7 -37 1 -46 -3 -63 -29 -20 -29 -24 -30 -95 -30 -90 -1 -113 14
-100 67 31 134 33 136 143 133 67 -2 82 -7 82 -28 0 -7 21 -13 53 -15 51 -3
52 -3 52 26 0 43 9 45 50 12 31 -24 44 -29 70 -24 l31 7 -18 -29 c-10 -16 -34
-54 -53 -84 -19 -30 -49 -77 -67 -104 -18 -26 -33 -51 -33 -56 0 -4 23 -6 51
-6 52 2 64 10 94 61 9 15 26 18 103 19 91 1 93 1 98 -24 13 -57 12 -56 69 -56
l55 0 -6 35 c-3 20 -10 50 -14 66 -5 17 -11 46 -14 65 -3 19 -8 46 -11 60 -24
126 -24 121 2 131 13 5 35 12 48 15 23 6 24 4 15 -25 -10 -37 -3 -43 48 -41
85 4 81 7 66 -57 -8 -32 -16 -71 -19 -86 -3 -15 -12 -56 -20 -90 -8 -33 -12
-64 -9 -67 3 -3 25 -5 49 -6 l44 0 11 50 c6 28 18 78 25 111 8 33 17 79 21
103 l7 42 51 1 c28 1 59 1 68 0 12 -2 20 10 27 36 6 21 11 44 11 51 0 12 -77
16 -250 13 l-55 -1 35 16 c19 9 40 17 45 18 19 4 160 79 163 86 1 4 19 2 40
-5 49 -16 151 -12 163 6 21 34 3 60 -45 63 -20 2 -38 5 -41 7 -2 2 24 26 57
52 62 50 78 54 58 17 -15 -29 -6 -107 16 -131 20 -23 74 -25 112 -5 24 12 30
12 47 0 10 -8 30 -14 44 -14 18 0 43 -18 80 -54 l53 -53 -112 1 c-71 1 -123
-3 -143 -12 -33 -13 -65 -49 -72 -80 -2 -9 -13 -53 -24 -97 -28 -110 -28 -169
2 -199 22 -22 29 -23 172 -21 83 1 157 5 165 9 36 16 73 101 94 221 13 71 17
90 21 93 2 2 15 -4 29 -13 22 -15 25 -22 20 -54 -3 -20 -8 -39 -10 -42 -2 -3
-6 -21 -9 -40 -3 -19 -12 -62 -20 -97 -8 -35 -15 -67 -15 -71 0 -5 22 -8 49
-8 l50 0 15 71 c9 39 21 95 27 123 10 48 12 52 30 42 11 -6 23 -18 26 -27 3
-9 11 -30 18 -47 7 -16 23 -55 36 -85 12 -30 26 -60 31 -66 7 -10 99 -13 140
-5 4 0 12 25 18 55 l11 55 30 -11 c24 -8 29 -15 29 -44 0 -50 23 -58 170 -57
69 1 136 2 150 4 21 2 105 -4 240 -16 119 -11 372 -16 366 -7 -3 5 -20 13 -38
16 -33 6 -113 31 -351 108 -121 39 -128 43 -124 65 5 30 -20 62 -53 68 -13 3
-54 5 -90 6 -116 2 -173 55 -65 59 96 3 112 1 117 -18 4 -15 14 -18 52 -17 25
1 48 4 50 6 3 2 6 24 9 47 3 31 -1 49 -13 64 -15 19 -27 21 -131 21 -63 0
-128 -1 -145 -2 -30 -1 -64 -25 -82 -57 -9 -16 -11 -15 -35 2 -15 10 -27 27
-27 37 0 9 -8 17 -17 17 -20 1 -32 9 -93 64 -38 34 -42 41 -31 58 15 24 5 58
-17 59 -17 2 -45 4 -69 7 -14 2 -75 87 -67 95 11 10 11 42 1 55 -5 6 -19 12
-31 13 -14 0 -3 9 32 25 55 25 65 46 32 64 -21 11 -80 5 -112 -11 -14 -7 -37
24 -140 188 -68 109 -127 206 -133 215 -5 10 -28 46 -49 80 -22 35 -51 81 -64
102 -13 21 -27 35 -31 30 -3 -5 -55 -52 -116 -104 -60 -52 -115 -99 -121 -105
-6 -5 -37 -32 -69 -60 -32 -27 -63 -54 -69 -60 -64 -57 -111 -98 -160 -140
-33 -27 -66 -56 -74 -64 -8 -8 -35 -32 -60 -53 -41 -34 -48 -36 -62 -23 -15
14 -20 13 -42 -5 -14 -11 -34 -43 -44 -71 -20 -55 -82 -119 -113 -116 -9 0
-47 -12 -85 -28 l-67 -28 -21 21 -21 21 42 17 c72 29 78 83 7 70 -56 -11 -48
21 12 46 58 25 79 50 57 72 -15 15 -61 10 -102 -12 -31 -17 -73 -71 -73 -94 0
-17 -2 -18 -15 -8 -9 7 -25 25 -35 40 l-19 27 45 109 c25 60 49 117 54 126 17
31 12 66 -11 73 -30 10 -49 -14 -90 -112 -19 -45 -37 -79 -40 -75 -3 4 -13 28
-23 54 -27 74 -113 138 -185 138 -23 0 -38 11 -72 53 -24 28 -46 54 -49 57 -3
3 -48 57 -100 120 -51 63 -96 117 -100 120 -3 3 -25 30 -50 60 -25 30 -52 63
-61 73 -9 10 -43 52 -75 92 -33 41 -63 74 -69 74 -5 0 -44 -18 -85 -40z
m-1463 -690 c8 -8 6 -24 -9 -57 -25 -59 -39 -73 -110 -111 -56 -30 -58 -30
-68 -11 -31 58 18 146 98 175 46 17 75 18 89 4z m3603 -401 c0 -11 -53 -36
-67 -31 -16 6 -17 47 -2 75 11 20 11 19 40 -8 16 -15 29 -31 29 -36z m183
-332 c8 -22 -28 -168 -44 -180 -14 -9 -136 -14 -193 -7 -8 1 -3 68 9 121 4 14
7 30 9 36 6 31 30 43 89 46 81 4 125 -1 130 -16z m-1059 -59 c7 -37 10 -67 5
-68 -5 0 -25 -1 -44 -1 -19 0 -42 1 -50 1 -11 1 -3 20 28 70 23 38 43 68 44
67 1 -1 9 -32 17 -69z"/>
<path d="M640 3784 c-194 -34 -381 -96 -494 -165 -70 -42 -78 -48 -111 -92
-50 -67 -31 -162 50 -249 41 -44 164 -143 221 -179 l39 -24 -49 -7 c-69 -10
-100 -43 -120 -127 -48 -194 -44 -251 16 -269 36 -11 273 -10 298 2 23 10 58
69 65 110 l7 36 -50 0 c-42 0 -52 -3 -57 -21 -4 -11 -16 -24 -28 -28 -27 -10
-149 -7 -165 3 -15 9 -15 49 1 106 22 82 24 83 118 84 78 1 85 -1 94 -22 9
-21 16 -23 72 -20 34 1 67 -2 72 -7 6 -6 5 -32 -4 -70 -23 -93 -20 -140 10
-163 22 -18 39 -19 172 -17 82 1 155 5 163 9 8 3 25 22 38 42 15 24 28 34 38
30 9 -3 20 -6 26 -6 6 0 8 -16 5 -38 l-4 -39 51 1 c34 1 50 5 49 14 -4 16 16
15 69 -2 138 -45 370 -110 468 -131 8 -2 15 -4 15 -5 0 -1 11 -3 25 -5 14 -2
61 -13 106 -24 45 -12 95 -23 112 -26 17 -2 39 -6 49 -9 10 -3 34 -7 53 -10
19 -3 80 -13 135 -22 55 -9 111 -17 125 -19 14 -1 43 -5 65 -9 22 -4 56 -9 75
-11 19 -2 51 -6 70 -9 76 -11 137 -18 190 -21 55 -3 184 -13 270 -21 143 -13
297 -18 555 -18 239 0 540 8 540 15 0 0 16 2 35 4 56 3 192 16 225 20 17 2 53
7 80 10 62 7 127 17 200 30 22 4 49 9 60 11 70 13 125 28 125 36 0 5 -9 7 -19
3 -11 -3 -37 -8 -58 -10 -21 -2 -38 -4 -38 -5 0 -1 -22 -4 -120 -14 -22 -3
-71 -9 -110 -15 -38 -6 -106 -13 -150 -16 -44 -4 -98 -8 -120 -10 -39 -4 -147
-10 -380 -20 -146 -7 -403 -7 -490 -1 -38 3 -115 8 -170 11 -55 3 -122 7 -150
10 -27 2 -80 6 -117 10 -127 10 -203 17 -233 21 -16 2 -57 6 -90 9 -33 3 -67
7 -75 10 -8 2 -40 7 -70 10 -30 3 -62 8 -70 10 -16 5 -219 44 -255 50 -32 4
-387 95 -397 101 -4 3 -16 7 -26 9 -51 10 -102 27 -108 37 -4 6 -3 8 4 4 13
-8 25 10 30 43 2 14 17 81 33 150 17 69 33 140 35 156 3 17 7 35 9 42 6 17 -5
18 -87 15 l-73 -3 -75 -120 c-41 -65 -78 -119 -82 -119 -5 0 -9 9 -9 20 -1 11
-2 23 -3 28 -1 4 -5 27 -10 52 -4 25 -12 67 -18 93 l-10 48 -81 -3 -81 -3 -18
-85 c-10 -47 -21 -98 -24 -115 -6 -37 -8 -38 -34 -30 -23 7 -23 5 -4 137 6 41
4 49 -19 72 -28 28 -30 28 -207 26 -85 0 -111 -4 -138 -21 l-34 -19 -61 37
c-132 79 -289 216 -353 308 -104 151 -44 250 206 339 67 24 158 49 230 63 13
2 27 6 29 9 11 10 -9 10 -79 -2z m308 -827 c12 -14 4 -67 -9 -67 -9 0 -149 67
-157 75 -2 2 32 3 76 4 52 1 83 -3 90 -12z m307 -153 c6 -43 5 -46 -12 -39
-10 4 -26 10 -35 12 -19 6 -19 5 3 103 l12 55 12 -42 c7 -23 16 -63 20 -89z
m289 114 c-4 -7 -9 -21 -10 -33 -4 -30 -42 -196 -46 -200 -5 -5 -75 19 -84 28
-8 7 127 216 139 217 5 0 5 -5 1 -12z m-681 -103 c55 -21 60 -25 47 -40 -11
-14 -154 -21 -184 -9 -16 6 -21 41 -10 81 l6 22 52 -20 c28 -11 68 -27 89 -34z"/>
<path d="M743 3793 c9 -2 25 -2 35 0 9 3 1 5 -18 5 -19 0 -27 -2 -17 -5z"/>
<path d="M2947 3509 c-56 -13 -97 -37 -142 -84 -94 -97 -108 -206 -32 -243 25
-12 33 -11 70 7 22 11 44 17 47 12 13 -20 51 -28 132 -26 106 1 140 21 103 59
-11 11 -34 14 -86 13 -93 -3 -98 1 -75 60 28 71 31 99 12 106 -28 11 -43 -3
-71 -66 -32 -74 -51 -97 -80 -97 -41 0 -43 47 -4 99 22 30 112 83 159 94 14 4
34 13 45 21 19 14 19 15 1 35 -21 23 -23 23 -79 10z"/>
<path d="M1784 3072 c-45 -3 -40 5 -60 -107 -2 -11 -11 -49 -19 -85 -8 -36
-17 -76 -19 -90 -2 -14 -7 -32 -10 -40 -3 -8 -7 -31 -10 -51 l-6 -37 53 2 c28
1 52 6 53 11 0 13 33 158 46 210 l11 40 8 -30 c5 -16 11 -42 14 -58 3 -15 12
-59 20 -98 8 -39 15 -71 15 -73 0 -1 18 -3 40 -3 38 -1 40 1 92 81 29 44 55
83 58 86 3 3 20 28 38 55 17 28 32 45 32 39 0 -6 -11 -61 -25 -122 -14 -61
-25 -117 -25 -125 0 -10 13 -15 45 -15 47 -1 54 3 61 44 3 14 12 56 20 93 21
90 24 102 30 130 3 13 11 50 19 83 l13 58 -83 0 -84 0 -53 -85 c-29 -47 -63
-101 -74 -121 -12 -20 -24 -32 -27 -27 -4 7 -47 214 -47 228 0 5 -82 10 -126
7z"/>
<path d="M2331 3033 c-5 -21 -13 -56 -17 -78 -4 -22 -8 -44 -10 -50 -12 -43
-16 -69 -21 -127 -5 -63 -4 -68 22 -92 27 -25 31 -25 149 -23 174 3 196 22
236 195 12 54 28 123 35 155 l13 57 -52 0 -53 0 -22 -107 c-12 -60 -24 -119
-27 -133 -10 -47 -31 -60 -103 -60 -102 0 -100 -3 -68 152 15 73 27 136 27
141 0 4 -22 7 -50 7 -49 0 -49 0 -59 -37z"/>
<path d="M2795 3058 c-3 -12 -75 -358 -79 -383 0 -5 21 -10 48 -10 l50 0 30
137 c16 76 32 135 35 133 3 -3 30 -65 61 -138 l57 -132 71 -2 c67 -1 72 0 77
20 2 12 13 63 24 112 11 50 22 101 25 115 6 37 26 122 32 143 5 16 0 18 -47
15 -57 -3 -61 -8 -74 -93 -11 -75 -28 -161 -35 -173 -4 -8 -29 42 -61 125
l-55 138 -77 3 c-56 2 -78 -1 -82 -10z"/>
<path d="M3267 2943 c-16 -71 -31 -139 -33 -153 -3 -14 -9 -43 -14 -65 -14
-61 -14 -62 35 -63 43 -1 62 12 63 43 1 8 12 68 17 85 1 3 5 25 10 50 5 25 9
47 10 50 2 9 26 124 31 153 5 26 5 27 -43 27 l-48 0 -28 -127z"/>
<path d="M4725 3058 c-3 -13 -22 -96 -29 -133 -3 -11 -9 -40 -15 -65 -5 -25
-12 -56 -14 -70 -3 -14 -10 -45 -17 -69 -6 -23 -8 -46 -5 -50 7 -7 95 -10 95
-4 0 3 11 52 25 111 13 59 27 123 30 142 3 19 8 43 11 52 3 9 7 26 9 38 2 12
7 30 10 41 6 17 1 19 -45 19 -32 0 -52 -5 -55 -12z"/>
</g>
</svg>
