<?xml version="1.0" standalone="no"?>
<!DOCTYPE svg PUBLIC "-//W3C//DTD SVG 20010904//EN"
 "http://www.w3.org/TR/2001/REC-SVG-20010904/DTD/svg10.dtd">
<svg version="1.0" xmlns="http://www.w3.org/2000/svg"
 width="306.000000pt" height="143.000000pt" viewBox="0 0 306.000000 143.000000"
 preserveAspectRatio="xMidYMid meet">

<g transform="translate(0.000000,143.000000) scale(0.100000,-0.100000)"
fill="#000000" stroke="none">
<path d="M570 917 c-45 -20 -60 -46 -60 -101 l0 -51 -58 -28 c-31 -16 -76 -38
-100 -51 l-43 -23 39 -11 c51 -15 210 -15 287 0 33 6 89 11 124 10 68 -2 131
19 131 44 0 8 7 14 15 14 11 0 14 -7 9 -25 -5 -20 -2 -25 18 -30 38 -10 111
-1 116 13 2 8 -11 12 -47 12 -28 0 -51 4 -51 9 0 5 18 25 40 45 37 33 51 58
33 55 -32 -5 -54 3 -51 19 2 11 -4 18 -19 20 -13 2 -23 -1 -23 -7 0 -17 -39
-13 -134 14 -48 14 -96 23 -107 20 -14 -5 -19 -2 -19 13 0 24 -31 52 -56 51
-10 0 -30 -6 -44 -12z m56 -53 c-9 -34 -29 -53 -58 -56 -17 -2 -24 3 -26 19
-4 28 31 63 64 63 23 0 25 -3 20 -26z"/>
<path d="M1417 924 c-3 -3 -3 -12 0 -20 4 -11 28 -14 104 -14 90 0 99 -2 113
-22 20 -28 20 -107 1 -132 -27 -35 -19 -69 20 -90 19 -11 35 -23 35 -28 0 -4
-24 -8 -54 -8 -48 0 -57 -3 -74 -27 -19 -27 -34 -115 -25 -140 3 -9 29 -13 80
-13 79 0 102 12 103 53 0 21 -33 23 -50 2 -13 -15 -75 -21 -83 -7 -2 4 -2 24
0 45 l5 37 49 0 c27 0 49 -4 49 -10 0 -19 38 -10 43 10 4 17 8 18 31 7 14 -7
26 -16 26 -21 0 -5 -13 -31 -30 -58 -16 -26 -30 -50 -30 -53 0 -11 43 -4 56
10 9 8 33 15 55 15 28 0 39 -4 39 -15 0 -10 10 -15 26 -15 24 0 26 3 20 32 -3
18 -9 56 -13 85 -5 45 -3 53 11 53 9 0 16 -8 16 -20 0 -16 7 -20 30 -20 30 0
30 0 23 -47 -3 -27 -10 -53 -14 -59 -11 -14 -1 -24 23 -24 10 0 18 7 18 16 0
8 7 37 16 65 13 40 20 49 40 49 23 0 49 31 37 44 -3 3 -33 6 -66 6 -33 0 -77
5 -99 12 -28 8 -42 8 -50 0 -8 -8 -15 -7 -25 4 -8 8 -19 11 -25 8 -6 -4 -5
-10 3 -15 11 -7 10 -9 -3 -9 -10 0 -18 7 -18 16 0 12 -7 14 -28 9 -16 -3 -39
-1 -53 4 -22 9 -21 10 13 10 45 1 98 30 98 54 0 21 -7 21 -53 2 -20 -8 -41
-15 -46 -15 -6 0 -8 7 -5 15 4 8 12 15 19 15 7 0 18 7 25 15 10 13 9 15 -9 15
-27 0 -27 17 -1 25 22 7 28 35 7 35 -22 0 -44 -23 -73 -74 -22 -41 -25 -53
-15 -68 11 -18 9 -19 -16 -16 -23 2 -27 7 -25 26 2 12 10 35 18 50 7 15 14 34
14 43 0 9 3 19 7 23 10 9 43 98 43 114 0 26 -27 11 -40 -23 -15 -39 -27 -44
-37 -17 -18 47 -57 62 -161 62 -49 0 -91 -3 -95 -6z m455 -411 c8 -10 3 -13
-21 -13 l-32 0 18 31 c15 25 19 27 22 12 2 -10 8 -24 13 -30z"/>
<path d="M2332 870 c-6 -11 -12 -26 -12 -33 0 -13 -40 -37 -61 -37 -24 0 -65
-56 -67 -92 -2 -21 1 -39 5 -39 48 -7 123 -4 144 7 23 11 28 10 47 -9 19 -18
25 -20 42 -10 12 8 21 9 25 3 10 -16 102 -12 108 4 8 20 -2 26 -40 26 -34 0
-34 0 -27 36 5 26 3 39 -7 45 -11 7 -10 9 4 9 9 0 17 7 17 16 0 13 -7 15 -37
9 -37 -6 -93 -52 -93 -74 0 -6 -10 -11 -23 -11 -13 0 -28 -5 -35 -12 -22 -22
-14 17 18 85 17 36 30 72 30 81 0 22 -23 20 -38 -4z m-48 -118 c-6 -4 -14 -17
-18 -29 -9 -28 -36 -39 -36 -13 0 19 35 50 55 50 6 0 6 -3 -1 -8z m167 -25
c-12 -31 -31 -44 -31 -21 0 17 30 58 37 50 2 -2 -1 -15 -6 -29z"/>
<path d="M1583 868 c-23 -37 -44 -86 -49 -115 -3 -18 -10 -36 -15 -39 -5 -3
-9 -16 -9 -29 0 -18 4 -23 15 -19 8 4 15 10 15 15 0 6 9 19 20 31 10 11 22 35
26 52 3 17 10 33 14 36 5 3 11 22 15 43 6 30 4 37 -8 37 -9 0 -19 -6 -24 -12z"/>
<path d="M59 845 c-20 -13 -39 -31 -43 -41 -10 -27 12 -88 41 -111 16 -12 39
-31 52 -42 13 -12 30 -21 38 -21 7 0 13 -4 13 -10 0 -5 -11 -10 -23 -10 -13 0
-31 -8 -39 -17 -19 -23 -41 -103 -36 -134 3 -23 7 -24 84 -27 78 -3 81 -2 92
23 7 14 12 30 12 35 0 16 -36 12 -50 -5 -14 -17 -76 -20 -85 -4 -4 6 -4 26 -1
45 7 33 8 34 56 34 29 0 50 -5 50 -11 0 -7 11 -8 30 -4 l30 7 -2 -59 -3 -58
79 -3 c70 -3 80 -1 93 18 18 26 33 26 33 -1 0 -18 4 -20 44 -14 28 5 46 3 50
-4 4 -6 20 -11 36 -11 16 0 49 -6 72 -14 70 -23 100 -28 93 -16 -3 5 -17 10
-29 10 -29 0 -50 22 -35 37 9 9 39 131 39 160 0 23 -60 15 -81 -9 -10 -13 -18
-26 -19 -30 0 -11 -33 -48 -42 -48 -5 0 -8 17 -8 38 0 51 -11 64 -51 60 -29
-3 -34 -7 -37 -33 -2 -16 -8 -34 -13 -40 -5 -5 -9 -17 -9 -28 0 -11 -4 -15
-11 -11 -7 4 -9 22 -6 47 9 63 4 67 -77 67 -42 0 -77 -5 -84 -12 -14 -14 -47
1 -112 52 -104 81 -134 136 -105 192 17 34 10 35 -36 3z m371 -299 c0 -22 -16
-27 -44 -15 -36 17 -32 29 9 29 24 0 35 -5 35 -14z m270 -14 c0 -4 -4 -12 -9
-17 -5 -6 -11 -26 -13 -45 -2 -27 -8 -36 -25 -38 -30 -4 -29 7 5 62 25 42 42
57 42 38z m-130 -54 c0 -10 -7 -18 -15 -18 -11 0 -15 11 -15 37 0 35 1 36 15
17 8 -10 15 -27 15 -36z m-187 30 c40 -19 34 -38 -12 -38 -42 0 -57 11 -47 35
7 18 24 19 59 3z"/>
<path d="M1089 813 c-13 -36 -4 -56 21 -48 27 9 25 -3 -6 -27 -18 -14 -24 -28
-22 -47 3 -25 6 -26 66 -29 51 -2 62 0 62 13 0 11 -12 15 -50 15 -27 0 -50 4
-50 8 0 5 11 19 25 32 28 26 34 70 10 70 -8 0 -15 9 -15 20 0 29 -29 25 -41
-7z"/>
<path d="M2095 805 c-59 -26 -79 -62 -76 -134 1 -20 4 -22 29 -16 15 3 51 6
80 5 41 -1 52 2 52 14 0 10 -9 16 -25 16 -22 0 -24 3 -22 45 1 29 7 45 15 45
18 0 11 34 -8 37 -8 1 -28 -4 -45 -12z m-13 -87 c-27 -28 -37 -7 -10 22 15 16
23 19 26 11 2 -7 -5 -22 -16 -33z"/>
<path d="M1311 803 c-30 -12 -70 -57 -76 -85 -10 -45 5 -54 95 -56 65 -1 80 1
80 13 0 11 -11 15 -40 15 -28 0 -40 4 -40 14 0 8 5 18 10 21 14 9 12 45 -2 46
-7 0 -3 4 10 9 12 5 22 14 22 20 0 11 -35 12 -59 3z m9 -48 c0 -19 -29 -65
-41 -65 -16 0 -10 43 9 61 21 22 32 23 32 4z"/>
<path d="M1896 758 c-14 -29 -26 -65 -26 -80 0 -25 4 -28 33 -28 24 0 40 8 58
28 31 35 59 85 59 107 0 28 -32 13 -52 -25 -26 -46 -58 -80 -58 -60 0 8 7 24
15 34 16 22 20 76 6 76 -5 0 -21 -23 -35 -52z"/>
<path d="M787 604 c-4 -4 -7 -18 -7 -31 0 -14 -4 -32 -9 -41 -4 -9 -11 -36
-14 -59 -4 -36 -2 -43 12 -43 26 0 41 21 41 58 0 29 2 33 14 22 8 -6 16 -26
18 -43 5 -50 36 -46 76 8 17 24 32 49 32 55 0 5 5 10 10 10 6 0 10 -4 10 -9 0
-6 -4 -13 -10 -16 -5 -3 -10 -24 -10 -46 0 -32 3 -39 20 -39 13 0 21 9 25 28
3 15 10 43 15 62 24 92 24 90 -17 90 -34 0 -41 -5 -68 -48 -16 -26 -34 -47
-40 -47 -5 0 -12 20 -15 45 -5 43 -6 45 -40 48 -20 2 -39 0 -43 -4z"/>
<path d="M1057 603 c-4 -3 -7 -19 -7 -34 0 -15 -4 -31 -10 -34 -5 -3 -10 -26
-10 -51 0 -39 3 -46 28 -55 15 -6 47 -8 72 -5 53 7 70 27 86 100 6 28 13 58
15 66 3 9 -4 16 -18 18 -17 3 -22 -3 -28 -30 -18 -90 -24 -98 -67 -98 -40 0
-40 0 -34 33 19 92 19 97 -1 97 -11 0 -23 -3 -26 -7z"/>
<path d="M1266 598 c-15 -45 -25 -88 -30 -125 -5 -37 -4 -43 11 -43 21 0 43
42 43 82 0 42 23 25 43 -32 17 -47 20 -50 52 -50 30 0 35 4 40 28 3 15 10 41
15 57 22 78 23 95 1 95 -25 0 -41 -28 -41 -74 0 -25 -4 -36 -15 -36 -8 0 -15
7 -15 15 0 8 -5 25 -12 38 -6 12 -14 29 -18 37 -9 19 -69 26 -74 8z"/>
<path d="M1485 598 c-5 -18 -15 -76 -22 -125 -4 -34 -2 -43 10 -43 20 0 25 9
37 67 24 117 24 113 1 113 -12 0 -23 -6 -26 -12z"/>
<path d="M2136 598 c-2 -7 -9 -41 -15 -76 -7 -35 -14 -69 -18 -77 -3 -11 2
-15 19 -15 22 0 26 6 37 63 25 123 25 117 2 117 -12 0 -23 -6 -25 -12z"/>
<path d="M2223 596 c-7 -8 -19 -42 -28 -76 -21 -82 -15 -90 81 -90 68 0 75 2
90 25 14 22 32 85 37 135 3 21 -162 27 -180 6z m117 -76 c0 -33 -4 -41 -24
-46 -46 -11 -71 -1 -74 29 -6 48 3 57 53 57 l45 0 0 -40z"/>
<path d="M2426 594 c-3 -9 -6 -35 -6 -59 0 -24 -4 -47 -10 -50 -5 -3 -10 -17
-10 -31 0 -19 5 -24 25 -24 20 0 25 5 25 24 0 13 6 38 13 56 l14 32 17 -39
c28 -64 32 -68 62 -71 25 -2 31 2 42 30 12 33 27 30 34 -7 3 -19 12 -20 123
-22 66 -1 154 -4 195 -7 70 -5 71 -4 25 5 -27 6 -54 14 -60 18 -5 5 -29 12
-52 16 -39 6 -43 10 -43 35 0 23 -5 29 -31 34 -17 3 -44 6 -60 6 -15 0 -31 5
-34 10 -4 6 12 10 39 10 25 0 46 -4 46 -10 0 -18 29 -11 40 9 20 39 3 51 -69
51 -57 0 -71 -3 -89 -22 -11 -13 -22 -39 -25 -58 -3 -24 -4 -17 -5 23 -2 56
-2 57 -32 57 -28 0 -30 -3 -36 -52 l-7 -51 -13 34 c-7 19 -16 42 -20 52 -9 23
-89 25 -98 1z"/>
<path d="M815 370 c11 -5 27 -9 35 -9 13 -1 13 0 0 9 -8 5 -24 9 -35 9 l-20 0
20 -9z"/>
<path d="M933 343 c9 -2 23 -2 30 0 6 3 -1 5 -18 5 -16 0 -22 -2 -12 -5z"/>
<path d="M1128 313 c12 -2 32 -2 45 0 12 2 2 4 -23 4 -25 0 -35 -2 -22 -4z"/>
</g>
</svg>
